<svg viewBox="0 0 800 800" xmlns="http://www.w3.org/2000/svg"><path d="M602.3758761908883,493.9881416836945 L604.9086206415344,68.46446078630277 M604.9086206415344,68.46446078630277 L620.6704148935783,77.93166909295161 M620.6704148935783,77.93166909295161 L635.0638043258921,88.07567571868663 M635.0638043258921,88.07567571868663 L647.9968295798534,98.83471419938775 M647.9968295798534,98.83471419938775 L659.3861445947753,110.14300366900278 M659.3861445947753,110.14300366900278 L669.1575100897757,121.93114779946052 M669.1575100897757,121.93114779946052 L677.246346973717,134.12649196445443 M677.246346973717,134.12649196445443 L683.5982553241172,146.65351379727485 M683.5982553241172,146.65351379727485 L688.1694164252007,159.4343159604831 M688.1694164252007,159.4343159604831 L690.9268718875288,172.38903932881604 M690.9268718875288,172.38903932881604 L691.8489722031595,185.4363615124159 M691.8489722031595,185.4363615124159 L690.925543367571,198.493972268782 M690.925543367571,198.493972268782 L688.1580844647888,211.47914689562487 M688.1580844647888,211.47914689562487 L683.5598121179931,224.3091766047332 M683.5598121179931,224.3091766047332 L677.1557751558688,236.90201448359736 M677.1557751558688,236.90201448359736 L668.9827386647979,249.1767316215329 M668.9827386647979,249.1767316215329 L659.0890536244308,261.0540883626785 M659.0890536244308,261.0540883626785 L647.5344658585326,272.45710085903227 M647.5344658585326,272.45710085903227 L634.3897683968772,283.3115244619971 M634.3897683968772,283.3115244619971 L619.736461160292,293.54643175142417 M619.736461160292,293.54643175142417 L603.6662441844725,303.0946780476869 M603.6662441844725,303.0946780476869 L586.2804868908472,311.89341588026167 M586.2804868908472,311.89341588026167 L567.6895780493621,319.88453661666404 M567.6895780493621,319.88453661666404 L548.012198878598,327.01509940688106 M548.012198878598,327.01509940688106 L527.3746315898235,333.23776840319334 M527.3746315898235,333.23776840319334 L505.9097764928084,338.51109515677774 M505.9097764928084,338.51109515677774 L483.7564001408713,342.7999268180147 M483.7564001408713,342.7999268180147 L461.05802921776524,346.0755919132175 M461.05802921776524,346.0755919132175 L437.96210852468727,348.316192287327 M437.96210852468727,348.316192287327 L414.6188267869137,349.5067181264693 M414.6188267869137,349.5067181264693 L391.18016805710425,349.6391764108214 M391.18016805710425,349.6391764108214 L367.798740311317,348.7126995790899 M367.798740311317,348.7126995790899 L344.6268178092644,346.7334893054693 M344.6268178092644,346.7334893054693 L321.81511152767166,343.71479424465605 M321.81511152767166,343.71479424465605 L299.5118501361837,339.6768316350353 M299.5118501361837,339.6768316350353 L277.86166064359855,334.6465775798877 M277.86166064359855,334.6465775798877 L257.00456313806524,328.6576041083622 M257.00456313806524,328.6576041083622 L237.07502621659165,321.7498017255484 M237.07502621659165,321.7498017255484 L218.20105370667807,313.969072197227 M218.20105370667807,313.969072197227 L200.50332073390277,305.3669879337424 M200.50332073390277,305.3669879337424 L184.09435464801578,296.0004019482956 M184.09435464801578,296.0004019482956 L169.07783786768547,285.931024945325 M169.07783786768547,285.931024945325 L155.54794427359488,275.22496454428574 M155.54794427359488,275.22496454428574 L143.58876559927262,263.9522611062192 M143.58876559927262,263.9522611062192 L133.27381497176918,252.18637203791235 M133.27381497176918,252.18637203791235 L124.6656308967564,240.00364969942805 M124.6656308967564,240.00364969942805 L117.81544804334351,227.48281110149097 M117.81544804334351,227.48281110149097 L112.76292281233646,214.70440987624215 M112.76292281233646,214.70440987624215 L109.53605628368092,201.7502940259256 M109.53605628368092,201.7502940259256 L108.15102779684048,188.70301873750927 M108.15102779684048,188.70301873750927 L108.61224203049994,175.6453890711711 M108.61224203049994,175.6453890711711 L110.91245817645273,162.65984522633659 M110.91245817645273,162.65984522633659 L115.03283472264206,149.82801356867876 M115.03283472264206,149.82801356867876 L120.94323727777629,137.23015014800137 M120.94323727777629,137.23015014800137 L128.6025496716773,124.94471682510505 M128.6025496716773,124.94471682510505 L137.9589332519201,113.0478384752733 M137.9589332519201,113.0478384752733 L148.95035889947357,101.61294691276146 M148.95035889947357,101.61294691276146 L161.50492507048926,90.71027913990906 M161.50492507048926,90.71027913990906 L175.5415281065907,80.40656777419031 M175.5415281065907,80.40656777419031 L190.97028623679398,70.76459879962977 M190.97028623679398,70.76459879962977 L207.69320289135348,61.84292124175778 M207.69320289135348,61.84292124175778 L225.60479166086685,53.69552661574255 M225.60479166086685,53.69552661574255 L244.59270182667035,46.371558112192815 M244.59270182667035,46.371558112192815 L264.5384531471476,39.9150706542265 M264.5384531471476,39.9150706542265 L285.31807274752384,34.36478893769993 M285.31807274752384,34.36478893769993 L306.8029196995411,29.753939689192066 M306.8029196995411,29.753939689192066 L328.86034163320784,26.110063759929517 M328.86034163320784,26.110063759929517 L351.35447781702413,23.45489674016244 M351.35447781702413,23.45489674016244 L374.1470774260651,21.804266357197093 M374.1470774260651,21.804266357197093 L397.0981268877137,21.167983122699525 M397.0981268877137,21.167983122699525 L420.06682553913697,21.5498416509123 M420.06682553913697,21.5498416509123 L442.91220223758563,22.94757230518394 M442.91220223758563,22.94757230518394 L465.49400587095266,25.352864650202605 M465.49400587095266,25.352864650202605 L487.67344893612466,28.751365469420875 M487.67344893612466,28.751365469420875 L509.3140201697193,33.122825579723894 M509.3140201697193,33.122825579723894 L530.28217511358,38.4411492978341 M530.28217511358,38.4411492978341 L550.4481980111814,44.67450906201799 M550.4481980111814,44.67450906201799 L569.6869136095892,51.785526487289985 M569.6869136095892,51.785526487289985 L587.878369387279,59.73147608290367 M587.878369387279,59.73147608290367 L604.9086206415344,68.46446078630277 M602.3758761908883,493.9881416836945 L585.5573165305864,485.13926429221397 M585.5573165305864,485.13926429221397 L567.5915673984277,477.08776531848673 M567.5915673984277,477.08776531848673 L548.5911733124086,469.8822075206733 M548.5911733124086,469.8822075206733 L528.6746221160181,463.56591225873353 M528.6746221160181,463.56591225873353 L507.96556892696356,458.1767807847622 M507.96556892696356,458.1767807847622 L486.5921614612241,453.74708704624993 M486.5921614612241,453.74708704624993 L464.68633594881794,450.30329354071716 M464.68633594881794,450.30329354071716 L442.3829646303992,447.86593459280675 M442.3829646303992,447.86593459280675 L419.81917233252267,446.44956577325456 M419.81917233252267,446.44956577325456 L397.13353238083147,446.0626147992359 M397.13353238083147,446.0626147992359 L374.46533063814644,446.7073833508034 M374.46533063814644,446.7073833508034 L351.953684390123,448.3800232531916 M351.953684390123,448.3800232531916 L329.73693176141046,451.07058556298705 M329.73693176141046,451.07058556298705 L307.95166654995285,454.76301945903356 M307.95166654995285,454.76301945903356 L286.7321171621455,459.4352834135615 M286.7321171621455,459.4352834135615 L266.20933709341637,465.0594496476676 M266.20933709341637,465.0594496476676 L246.51041055688933,471.6018257087361 M246.51041055688933,471.6018257087361 L227.75780295591255,479.02314558108924 M227.75780295591255,479.02314558108924 L210.06854566108933,487.2787404486651 M210.06854566108933,487.2787404486651 L193.55360639312318,496.31878472850565 M193.55360639312318,496.31878472850565 L178.31716315844054,506.088540106147 M178.31716315844054,506.088540106147 L164.45598635086156,516.528651141733 M164.45598635086156,516.528651141733 L152.0588216804278,527.5754710087376 M152.0588216804278,527.5754710087376 L141.20573547566414,539.1613565856591 M141.20573547566414,539.1613565856591 L131.96769661506477,551.215117435131 M131.96769661506477,551.215117435131 L124.40591541672222,563.6623302875043 M124.40591541672222,563.6623302875043 L118.57153069128509,576.4258481495356 M118.57153069128509,576.4258481495356 L114.50508564323331,589.4261617097117 M114.50508564323331,589.4261617097117 L112.23627331551165,602.5819497958169 M112.23627331551165,602.5819497958169 L111.78363098234308,615.8105092042249 M111.78363098234308,615.8105092042249 L113.15423790576835,629.0283187251571 M113.15423790576835,629.0283187251571 L116.3436728941204,642.1514940895928 M116.3436728941204,642.1514940895928 L121.3358885667144,655.0964106780374 M121.3358885667144,655.0964106780374 L128.1031666263662,667.7801665836391 M128.1031666263662,667.7801665836391 L136.6062839188533,680.1211770817066 M136.6062839188533,680.1211770817066 L146.79459010905802,692.0397234221522 M146.79459010905802,692.0397234221522 L158.60628010777307,703.4584870723651 M158.60628010777307,703.4584870723651 L171.96872039672087,714.3030861362865 M171.96872039672087,714.3030861362865 L186.79884108315056,724.5026033488949 M186.79884108315056,724.5026033488949 L203.00362687962212,733.9901075051722 M203.00362687962212,733.9901075051722 L220.48068397703898,742.7031226404711 M220.48068397703898,742.7031226404711 L239.11889549243614,750.5840937372586 M239.11889549243614,750.5840937372586 L258.7991097387556,757.5808140736781 M258.7991097387556,757.5808140736781 L279.394948582494,763.6468193023056 M279.394948582494,763.6468193023056 L300.77365980490384,768.741731518951 M300.77365980490384,768.741731518951 L322.7970179202126,772.8315695796168 M322.7970179202126,772.8315695796168 L345.3222556506313,775.8890293722292 M345.3222556506313,775.8890293722292 L368.2030551166249,777.8936482314859 M368.2030551166249,777.8936482314859 L391.29065152527227,778.8320168773005 M391.29065152527227,778.8320168773005 L414.4347389206374,778.6978585019256 M414.4347389206374,778.6978585019256 L437.4846825051841,777.4920511612734 M437.4846825051841,777.4920511612734 L460.29046243062635,775.2226847409788 M460.29046243062635,775.2226847409788 L482.70382869973065,771.9049510888887 M482.70382869973065,771.9049510888887 L504.57923614684546,767.5610142691743 M504.57923614684546,767.5610142691743 L525.7750023087012,762.2198945736684 M525.7750023087012,762.2198945736684 L546.1541374743564,755.9171734790466 M546.1541374743564,755.9171734790466 L565.5854357232887,748.6948062547742 M565.5854357232887,748.6948062547742 L583.9442164209725,740.6007093841895 M583.9442164209725,740.6007093841895 L601.113294112703,731.6884754800739 M601.113294112703,731.6884754800739 L616.9836609435431,722.0169314289861 M616.9836609435431,722.0169314289861 L631.4552043757805,711.6497049329795 M631.4552043757805,711.6497049329795 L644.4373493085884,700.6547781921151 M644.4373493085884,700.6547781921151 L655.8495826885609,689.1039677659115 M655.8495826885609,689.1039677659115 L665.621954735856,677.0724539587595 M665.621954735856,677.0724539587595 L673.6954160670801,664.6381961390666 M673.6954160670801,664.6381961390666 L680.02216225738,651.8814438100753 M680.02216225738,651.8814438100753 L684.5658239776941,638.8841633087136 M684.5658239776941,638.8841633087136 L687.3015973580624,625.7294595935747 M687.3015973580624,625.7294595935747 L688.2163602010347,612.5011145050776 M688.2163602010347,612.5011145050776 L687.3085605615596,599.2829325476022 M687.3085605615596,599.2829325476022 L684.5881746416007,586.1583049082099 M684.5881746416007,586.1583049082099 L680.0765134643533,573.2096284215705 M680.0765134643533,573.2096284215705 L673.8060600400973,560.5178236377485 M673.8060600400973,560.5178236377485 L665.8200279978184,548.1618293250809 M665.8200279978184,548.1618293250809 L656.1720873850422,536.2181832989082 M656.1720873850422,536.2181832989082 L644.9259689164638,524.7605224932389 M644.9259689164638,524.7605224932389 L632.1549525046506,513.8591864860053 M632.1549525046506,513.8591864860053 L617.9413215516084,503.5808547784088 M617.9413215516084,503.5808547784088 L602.3758761908883,493.9881416836945 M253.5813514827332,222.16745474344935 L247.20231120830158,213.10022962817305 M247.20231120830158,213.10022962817305 L242.5924497402266,203.7051982030226 M242.5924497402266,203.7051982030226 L239.8020526631063,194.0915414201303 M239.8020526631063,194.0915414201303 L238.86018509838183,184.37059280572828 M238.86018509838183,184.37059280572828 L239.77443216853285,174.65454339943278 M239.77443216853285,174.65454339943278 L242.53103549785106,165.05513318997419 M242.53103549785106,165.05513318997419 L247.09513593449407,155.68237028126666 M247.09513593449407,155.68237028126666 L253.41134643809795,146.6432947364691 M253.41134643809795,146.6432947364691 L261.40455196708416,138.04080296181525 M261.40455196708416,138.04080296181525 L270.9807832449706,129.97248500164886 M270.9807832449706,129.97248500164886 L282.02848870275454,122.52960946708953 M282.02848870275454,122.52960946708953 L294.41982189955706,115.7961260084715 M294.41982189955706,115.7961260084715 L308.01215048968766,109.84778848540827 M308.01215048968766,109.84778848540827 L322.6496723113025,104.7513518839587 M322.6496723113025,104.7513518839587 L338.16520025742346,100.56390200179453 M338.16520025742346,100.56390200179453 L354.3820280118896,97.33226549712435 M354.3820280118896,97.33226549712435 L371.1158323272164,95.09252302542922 M371.1158323272164,95.09252302542922 L388.17672418421154,93.86966005119075 M388.17672418421154,93.86966005119075 L405.3712811156973,93.67730977192946 M405.3712811156973,93.67730977192946 L422.50463412260916,94.51761232310719 M422.50463412260916,94.51761232310719 L439.3825956715535,96.38120834294352 M439.3825956715535,96.38120834294352 L455.8137152016585,99.24730885466215 M455.8137152016585,99.24730885466215 L471.61134904362774,103.08392820017536 M471.61134904362774,103.08392820017536 L486.59573385755476,107.84818714744415 M486.59573385755476,107.84818714744415 L500.5959049109625,113.486764300804 M500.5959049109625,113.486764300804 L513.4516372228002,119.93641331353263 M513.4516372228002,119.93641331353263 L525.0151765445917,127.12465544064958 M525.0151765445917,127.12465544064958 L535.1530098605135,134.97048157802624 M535.1530098605135,134.97048157802624 L543.7473265117122,143.3852515115973 M543.7473265117122,143.3852515115973 L550.6974942211725,152.2735982815945 M550.6974942211725,152.2735982815945 L555.9212441730671,161.5344814755412 M555.9212441730671,161.5344814755412 L559.3557481944207,171.06225987936077 M559.3557481944207,171.06225987936077 L560.9584291664924,180.7478843313323 M560.9584291664924,180.7478843313323 L560.7076319298048,190.48012030511342 M560.7076319298048,190.48012030511342 L558.6029765225105,200.14679155386244 M558.6029765225105,200.14679155386244 L554.6655395999181,209.6360902613796 M554.6655395999181,209.6360902613796 L548.9377504395154,218.83788468854482 M548.9377504395154,218.83788468854482 L541.4830271003434,227.64501070753394 M541.4830271003434,227.64501070753394 L532.3851920937404,235.95458251185468 M532.3851920937404,235.95458251185468 L521.7475827680233,243.66922020327166 M521.7475827680233,243.66922020327166 L509.6919199123824,250.69825102179195 M509.6919199123824,250.69825102179195 L496.3569785141557,256.9588523580817 M496.3569785141557,256.9588523580817 L481.8969720020089,262.3770799284249 M481.8969720020089,262.3770799284249 L466.47976462919195,266.8888108775064 M466.47976462919195,266.8888108775064 L450.2848376194369,270.4405319961659 M450.2848376194369,270.4405319961659 L433.5012064331606,272.99008785330057 M433.5012064331606,272.99008785330057 L416.3250676780386,274.5071685112604 M416.3250676780386,274.5071685112604 L398.95743138986626,274.97372224502243 M398.95743138986626,274.97372224502243 L381.60166566736825,274.3842073364643 M381.60166566736825,274.3842073364643 L364.4609944302857,272.74562748964024 M364.4609944302857,272.74562748964024 L347.7359893771058,270.0774829500075 M347.7359893771058,270.0774829500075 L331.6221384776476,266.41147851465144 M331.6221384776476,266.41147851465144 L325.29377740375634,270.6676521245936 M325.29377740375634,270.6676521245936 L317.7542897667467,274.2408881216442 M317.7542897667467,274.2408881216442 L309.233100630075,277.0216600685276 M309.233100630075,277.0216600685276 L299.99007821515977,278.92459817982876 M299.99007821515977,278.92459817982876 L290.3074277106558,279.8912622258304 M290.3074277106558,279.8912622258304 L280.4810632015415,279.8919363883284 M280.4810632015415,279.8919363883284 L270.8113363538362,278.9265953332558 M270.8113363538362,278.9265953332558 L261.593718649216,277.024924863754 M261.593718649216,277.024924863754 L253.10969088017154,274.24532095163306 M253.10969088017154,274.24532095163306 L245.61794652212637,270.673103915048 M245.61794652212637,270.673103915048 L239.34645936966712,266.4177974885464 M239.34645936966712,266.4177974885464 L234.4855503477217,261.60967178998345 M234.4855503477217,261.60967178998345 L231.1821159074246,256.39568662752106 M231.1821159074246,256.39568662752106 L229.53521992165645,250.9349427569948 M229.53521992165645,250.9349427569948 L229.5933542889797,245.39372505948978 M229.5933542889797,245.39372505948978 L231.3530536898912,239.94044520307992 M231.3530536898912,239.94044520307992 L234.75923978510923,234.74053344310911 M234.75923978510923,234.74053344310911 L239.70712669431816,229.95140359510043 M239.70712669431816,229.95140359510043 L246.04546020283422,225.71780317128312 M246.04546020283422,225.71780317128312 L253.5813514827332,222.16745474344935 M466.80524580091907,527.9808109763375 L451.0262490502637,524.3411658135882 M451.0262490502637,524.3411658135882 L434.6680594405574,521.6942033830446 M434.6680594405574,521.6942033830446 L417.91644051330394,520.0694653826611 M417.91644051330394,520.0694653826611 L400.9613921515002,519.4850853989841 M400.9613921515002,519.4850853989841 L383.9951201514986,519.9475684827214 M383.9951201514986,519.9475684827214 L367.2099497722699,521.4517678584391 M367.2099497722699,521.4517678584391 L350.7962459427087,523.9809001041036 M350.7962459427087,523.9809001041036 L334.94036269181413,527.5067306909417 M334.94036269181413,527.5067306909417 L319.822644589586,531.9898780815898 M319.822644589586,531.9898780815898 L305.6153943584288,537.3801560670626 M305.6153943584288,537.3801560670626 L292.4810420907608,543.6171453755973 M292.4810420907608,543.6171453755973 L280.57029098160785,550.6307840193726 M280.57029098160785,550.6307840193726 L270.02042478828884,558.3420997304872 M270.02042478828884,558.3420997304872 L260.95370157595744,566.6640249921439 M260.95370157595744,566.6640249921439 L253.4759461701925,575.5023346017865 M253.4759461701925,575.5023346017865 L247.67525937182512,584.7566591699637 M247.67525937182512,584.7566591699637 L243.62089530480603,594.3215515166235 M243.62089530480603,594.3215515166235 L241.362379377715,604.0876710573884 M241.362379377715,604.0876710573884 L240.92879895787863,613.9429898183308 M240.92879895787863,613.9429898183308 L242.32832056362898,623.7740600784099 M242.32832056362898,623.7740600784099 L245.54797632187922,633.467332712244 M245.54797632187922,633.467332712244 L250.5536264531897,642.9104565735062 M250.5536264531897,642.9104565735062 L257.290258631042,651.9936031247058 M257.290258631042,651.9936031247058 L265.6824646393178,660.6108039698514 M265.6824646393178,660.6108039698514 L275.63523665324334,668.6612029580073 M275.63523665324334,668.6612029580073 L287.03493597708103,676.0503184026459 M287.03493597708103,676.0503184026459 L299.7506274197682,682.6911738344666 M299.7506274197682,682.6911738344666 L313.6354787861062,688.5054351979564 M313.6354787861062,688.5054351979564 L328.52855275658567,693.424346695672 M328.52855275658567,693.424346695672 L344.2566395885489,697.3896482400623 M344.2566395885489,697.3896482400623 L360.63637570915495,700.3542938156615 M360.63637570915495,700.3542938156615 L377.4764056655621,702.2830748194505 M377.4764056655621,702.2830748194505 L394.57975350978086,703.1530555967147 M394.57975350978086,703.1530555967147 L411.74623025580337,702.9538960971802 M411.74623025580337,702.9538960971802 L428.7748502633989,701.6879615883826 M428.7748502633989,701.6879615883826 L445.4663255324148,699.3703074071964 M445.4663255324148,699.3703074071964 L461.6255067826228,696.0284790722161 M461.6255067826228,696.0284790722161 L477.06374046451145,691.7021491049134 M477.06374046451145,691.7021491049134 L491.60119927221217,686.4426202200123 M491.60119927221217,686.4426202200123 L505.06900469468985,680.3121543284103 M505.06900469468985,680.3121543284103 L517.3112428011123,673.3831712823086 M517.3112428011123,673.3831712823086 L528.1868215349641,665.7373499688632 M528.1868215349641,665.7373499688632 L537.5710771089226,657.4645878092358 M537.5710771089226,657.4645878092358 L545.3571912334933,648.6618897789091 M545.3571912334933,648.6618897789091 L551.4573081947897,639.4321489470489 M551.4573081947897,639.4321489470489 L555.8035649889316,629.8829335556303 M555.8035649889316,629.8829335556303 L558.3486629490476,620.125156007555 M558.3486629490476,620.125156007555 L559.0663182165359,610.2717684634779 M559.0663182165359,610.2717684634779 L557.9514535431374,600.4364413613889 M557.9514535431374,600.4364413613889 L555.0200469750796,590.732244253382 M555.0200469750796,590.732244253382 L550.3088765329026,581.2703472212731 M550.3088765329026,581.2703472212731 L543.8748932677275,572.158783230441 M543.8748932677275,572.158783230441 L551.2184882357808,568.5964631516077 M551.2184882357808,568.5964631516077 L557.3667527448117,564.3525439710004 M557.3667527448117,564.3525439710004 L562.1331472114688,559.5569218858735 M562.1331472114688,559.5569218858735 L565.3735895668488,554.3561777430436 M565.3735895668488,554.3561777430436 L566.9908677649412,548.9089652273337 M566.9908677649412,548.9089652273337 L566.9373457543762,543.3811767775826 M566.9373457543762,543.3811767775826 L565.2162655294242,537.9408164962032 M565.2162655294242,537.9408164962032 L561.8814871243428,532.752904302157 M561.8814871243428,532.752904302157 L557.0355673449181,527.9745347015697 M557.0355673449181,527.9745347015697 L550.8266044821279,523.7501275812765 M550.8266044821279,523.7501275812765 L543.4435949535132,520.207153945497 M543.4435949535132,520.207153945497 L535.110633245856,517.4523885698451 M535.110633245856,517.4523885698451 L526.0801650109943,515.5687610521131 M526.0801650109943,515.5687610521131 L516.6254433161247,514.6129052059144 M516.6254433161247,514.6129052059144 L507.03229136267726,514.6135726676523 M507.03229136267726,514.6135726676523 L497.5906586398054,515.5707388095719 M497.5906586398054,515.5707388095719 L488.5860191608856,517.4556231219033 M488.5860191608856,517.4556231219033 L480.2907954325996,520.2115486196316 M480.2907954325996,520.2115486196316 L472.95633088705705,523.7555370452171 M472.95633088705705,523.7555370452171 L466.80524580091907,527.9808109763375 M466.8866314212265,486.6124539483129 L466.80524580091907,527.9808109763375 M466.8866314212265,486.6124539483129 L480.90358690804493,490.8483718148308 M480.90358690804493,490.8483718148308 L494.1249331747252,495.86606718751034 M494.1249331747252,495.86606718751034 L506.41989015757696,501.61685737571975 M506.41989015757696,501.61685737571975 L517.6663942976852,508.04485782792506 M517.6663942976852,508.04485782792506 L527.7523476060022,515.0874562068237 M527.7523476060022,515.0874562068237 L536.576731998038,522.675877832336 M536.576731998038,522.675877832336 L544.050588290995,530.7358451778136 M544.050588290995,530.7358451778136 L543.8748932677275,572.158783230441 M287.03493597708103,676.0503184026459 L285.7481676617076,290.6707013204262 M331.70704629052653,308.9385188755621 L319.1890026502064,305.24303369130246 M319.1890026502064,305.24303369130246 L307.2964469590509,300.94334622611706 M307.2964469590509,300.94334622611706 L296.12091189584396,296.07318676145866 M296.12091189584396,296.07318676145866 L285.7481676617076,290.6707013204262 M331.6221384776476,266.41147851465144 L331.70704629052653,308.9385188755621 M253.5813514827332,222.16745474344935 L253.76272279454602,264.63610498919076 M285.7481676617076,290.6707013204262 L276.2575347637589,284.77813374194056 M276.2575347637589,284.77813374194056 L267.7213025268817,278.4414594939026 M267.7213025268817,278.4414594939026 L260.2041599641687,271.7100198593826 M260.2041599641687,271.7100198593826 L253.76272279454602,264.63610498919076 M331.70704629052653,308.9385188755621 L325.3865704951702,313.20029401238776 M325.3865704951702,313.20029401238776 L317.8564732810006,316.7782306294825 M317.8564732810006,316.7782306294825 L309.345893593197,319.5626593797158 M309.345893593197,319.5626593797158 L300.1143750424406,321.4680992471486 M300.1143750424406,321.4680992471486 L290.443769966924,322.4360339399161 M290.443769966924,322.4360339399161 L280.6296223452765,322.4367089885288 M280.6296223452765,322.4367089885288 L270.97190831658884,321.4700990259097 M270.97190831658884,321.4700990259097 L261.76573032035,319.5659284675704 M261.76573032035,319.5659284675704 L253.29221820932926,316.7826692897057 M253.29221820932926,316.7826692897057 L245.8097437828794,313.2057529761728 M245.8097437828794,313.2057529761728 L239.54599841092374,308.9448461678363 M239.54599841092374,308.9448461678363 L234.69106847388713,304.13038926002224 M234.69106847388713,304.13038926002224 L231.3916708218773,298.90953454791634 M231.3916708218773,298.90953454791634 L229.7467499266162,293.4415916492237 M229.7467499266162,293.4415916492237 L229.80474157825967,287.8930642646979 M229.80474157825967,287.8930642646979 L231.56218899728248,282.43258623155026 M231.56218899728248,282.43258623155026 L234.9640862241539,277.22580658260404 M234.9640862241539,277.22580658260404 L239.90578087578695,272.43034780939655 M239.90578087578695,272.43034780939655 L246.23620903926593,268.1911497405747 M246.23620903926593,268.1911497405747 L253.76272279454602,264.63610498919076 M544.050588290995,530.7358451778136 L551.4031102458779,527.1779158399047 M551.4031102458779,527.1779158399047 L557.5588314138172,522.939229895428 M557.5588314138172,522.939229895428 L562.3309863476827,518.1495244858544 M562.3309863476827,518.1495244858544 L565.5753198730108,512.9552005943335 M565.5753198730108,512.9552005943335 L567.19450477292,507.51471677559925 M567.19450477292,507.51471677559925 L567.1408507701924,501.99376093058595 M567.1408507701924,501.99376093058595 L565.4176078210121,496.56012949267006 M565.4176078210121,496.56012949267006 L562.0787054315604,491.37863788185985 M562.0787054315604,491.37863788185985 L557.2268287099785,486.60618544776287 M557.2268287099785,486.60618544776287 L551.01025895468,482.3870122524868 M551.01025895468,482.3870122524868 L543.6182244464051,478.84843024922554 M543.6182244464051,478.84843024922554 L535.2750932396166,476.0970807473483 M535.2750932396166,476.0970807473483 L526.2336180668161,474.2157895338006 M526.2336180668161,474.2157895338006 L516.7673835335728,473.26111945216917 M516.7673835335728,473.26111945216917 L507.1625590265814,473.261786085857 M507.1625590265814,473.261786085857 L497.70944486320286,474.2177648379354 M497.70944486320286,474.2177648379354 L488.6938603573695,476.1003112879612 M488.6938603573695,476.1003112879612 L480.38855763724973,478.8528194748951 M480.38855763724973,478.8528194748951 L473.04518454597354,482.3924150126031 M473.04518454597354,482.3924150126031 L466.8866314212265,486.6124539483129" stroke="black"  stroke-width="4"  fill="red"/></svg>